<?xml version="1.0" encoding="UTF-8"?>
<svg width="166px" height="38px" viewBox="0 0 166 38" version="1.1" xmlns="http://www.w3.org/2000/svg" xmlns:xlink="http://www.w3.org/1999/xlink">
    <title>R-Logo 黑</title>
    <g id="R-Logo-黑" stroke="none" stroke-width="1" fill="none" fill-rule="evenodd">
        <g id="Group" fill="#000000">
            <path d="M19.644,37.0000008 L13.8519304,26.0768212 L10.2860105,26.0768212 L10.2860105,37.0000008 L0.450660187,37.0000008 L0.450660187,1.30000078 L15.9240599,1.30000078 C23.6204701,1.30000078 29.19936,6.47140047 29.19936,13.9342306 C29.19936,18.3151302 27.0593997,21.9050202 23.53275,24.0164199 L30.6212403,37.0000008 L19.644,37.0000008 Z M10.2860105,10.0398713 L10.2860105,17.7918713 L14.7786003,17.7918713 C17.5280105,17.7918713 19.1105404,16.136411 19.1105404,13.9046512 C19.1105404,11.6734012 17.5280105,10.0398713 14.7786003,10.0398713 L10.2860105,10.0398713 Z M47.6848204,37.9026998 C38.7057605,37.9026998 32.2440607,31.7378196 32.2440607,23.2299992 C32.2440607,14.6931093 38.7057605,8.5578091 47.6848204,8.5578091 C56.6348107,8.5578091 63.1255809,14.6931093 63.1255809,23.2299992 C63.1255809,31.7378196 56.6348107,37.9026998 47.6848204,37.9026998 Z M47.6848204,29.38111 L47.6848204,29.3816198 C51.1436407,29.3816198 53.6242807,26.8719094 53.6242807,23.2310194 C53.6242807,19.6115494 51.1436407,17.0799094 47.6848204,17.0799094 C44.226,17.0799094 41.74536,19.5896198 41.74536,23.2305097 C41.74536,26.8713997 44.226,29.38111 47.6848204,29.38111 Z M78.1318204,37.9026998 C85.4513406,37.9026998 90.3085809,34.1363495 90.3085809,28.3809992 C90.3085809,21.3970591 84.524161,20.4928293 80.1738608,19.7201796 C77.5575607,19.2535299 75.4512605,18.8888802 75.4512605,17.3216505 C75.4512605,16.0451205 76.4727904,15.2923608 77.9936108,15.2923608 C79.7123107,15.2923608 80.8944903,16.1098907 80.8944903,17.8683705 L89.7776699,17.8683705 C89.6695502,12.2879506 85.1244304,8.55730093 78.1114207,8.55730093 C71.0550607,8.55730093 66.3508204,12.1211812 66.3508204,17.6414215 C66.3508204,24.3208915 72.0118204,25.6096617 76.2820502,26.3017321 C78.9279304,26.7393122 81.0128107,27.1921925 81.0128107,28.7808421 C81.0128107,30.2042523 79.697521,30.9121326 78.3098107,30.9121326 C76.5110404,30.9121326 75.1090502,29.984953 75.1090502,27.9709627 L65.9785202,27.9709627 C66.0652201,33.9379627 70.6271699,37.9021925 78.1333495,37.9021925 L78.1318204,37.9026998 Z M108.57882,37.9026998 C99.5997605,37.9026998 93.1380607,31.7378196 93.1380607,23.2299992 C93.1380607,14.6931093 99.5997605,8.5578091 108.57882,8.5578091 C117.528811,8.5578091 124.019581,14.6931093 124.019581,23.2299992 C124.019581,31.7378196 117.528811,37.9026998 108.57882,37.9026998 Z M108.57882,29.38111 L108.57882,29.3816198 C112.037641,29.3816198 114.518281,26.8719094 114.518281,23.2310194 C114.518281,19.6115494 112.037641,17.0799094 108.57882,17.0799094 C105.12,17.0799094 102.63936,19.5896198 102.63936,23.2305097 C102.63936,26.8713997 105.12,29.38111 108.57882,29.38111 Z M135.056999,9.46000078 L128.402009,9.46000078 L128.402009,37.0000016 L137.888009,37.0000016 L137.888009,22.2936407 C137.888009,21.0398101 137.888009,19.1827303 137.888009,16.7224012 C140.080674,16.7224012 141.633964,16.7224012 142.547879,16.7224012 C144.935189,16.7224012 146.139299,18.3125809 146.139299,21.5179312 L146.139299,37.0000016 L155.625299,37.0000016 L155.625299,20.2072313 C155.625299,13.1906512 151.424939,9.46000078 145.02954,9.46000078 L135.056999,9.46000078 Z" id="Roson"></path>
            <text id="'" font-family=".AppleSystemUIFont" font-size="24" font-weight="normal">
                <tspan x="159" y="23">'</tspan>
            </text>
        </g>
    </g>
</svg>